{"title":"David Guetta Feat. Akon - Sexy Chick (Official Video) - Full HD","uid":15123675,"size":71254958,"categoryP":"video","categoryS":"music_videos","magnet":"?xt=urn:btih:1a863e40e3c7b1c1db99dc1d37dee79b304d5416&amp;dn=David+Guetta+Feat.+Akon+-+Sexy+Chick+%28Official+Video%29+-+Full+HD+&amp;tr=udp%3A%2F%2Ftracker.leechers-paradise.org%3A6969&amp;tr=udp%3A%2F%2Fzer0day.ch%3A1337&amp;tr=udp%3A%2F%2Fopen.demonii.com%3A1337&amp;tr=udp%3A%2F%2Ftracker.coppersurfer.tk%3A6969&amp;tr=udp%3A%2F%2Fexodus.desync.com%3A6969","seeders":1,"leechers":0,"uploader":"MdTaRa","files":1,"time":1467094753,"description":"General\r\nUnique ID                   : 176541846575885911389062242032465750871 (0x84D0B90E634BF086A24398793E8C2B57)\r\nComplete name               : K:HD Songs &amp; OtherENGLISH SONGDavid Guetta Feat. Akon - Sexy Chick (Official Video) - Full HD 720p.mkv\r\nFormat                      : Matroska\r\nFormat version              : Version 4 / Version 2\r\nFile size                   : 68.0 MiB\r\nDuration                    : 3mn 31s\r\nOverall bit rate mode       : Variable\r\nOverall bit rate            : 2 701 Kbps\r\nMovie name                  : David Guetta Feat. Akon - Sexy Chick (Official Video) - Full HD 720p By TaRa\r\nEncoded date                : UTC 2016-06-27 01:59:06\r\nWriting application         : mkvmerge v8.3.0 ('Over the Horizon') 64bit\r\nWriting library             : libebml v1.3.1 + libmatroska v1.4.2\r\n======================================================================================\r\nVideo\r\nID                          : 1\r\nFormat                      : AVC\r\nFormat/Info                 : Advanced Video Codec\r\nFormat profile              :   \r\nFormat settings, CABAC      : Yes\r\nFormat settings, ReFrames   : 3 frames\r\nCodec ID                    : V_MPEG4/ISO/AVC\r\nDuration                    : 3mn 31s\r\nBit rate mode               : Variable\r\nBit rate                    : 2 603 Kbps\r\nMaximum bit rate            : 40.0 Mbps\r\nWidth                       : 1 280 pixels\r\nHeight                      : 544 pixels\r\nDisplay aspect ratio        : 2.35:1\r\nFrame rate mode             : Constant\r\nFrame rate                  : 25.000 fps\r\nColor space                 : YUV\r\nChroma subsampling          : 4:2:0\r\nBit depth                   : 8 bits\r\nScan type                   : Progressive\r\nBits/(Pixel*Frame)          : 0.150\r\nStream size                 : 65.5 MiB (96%)\r\nTitle                       : = __ TaRa ~ DDR __ =\r\nWriting library             : x264 core 148 r2638 7599210\r\nEncoding settings           : cabac=1 / ref=3 / deblock=1:0:0 / analyse=0x3:0x113 / me=hex / subme=7 / psy=1 / psy_rd=1.00:0.00 / mixed_ref=1 / me_range=16 / chroma_me=1 / trellis=1 / 8x8dct=1 / cqm=0 / deadzone=21,11 / fast_pskip=1 / chroma_qp_offset=-2 / threads=3 / lookahead_threads=1 / sliced_threads=0 / slices=4 / nr=0 / decimate=1 / interlaced=0 / bluray_compat=1 / constrained_intra=0 / bframes=3 / b_pyramid=1 / b_adapt=1 / b_bias=0 / direct=1 / weightb=1 / open_gop=1 / weightp=1 / keyint=25 / keyint_min=1 / scenecut=40 / intra_refresh=0 / rc_lookahead=25 / rc=2pass / mbtree=1 / bitrate=2603 / ratetol=1.0 / qcomp=0.60 / qpmin=0 / qpmax=69 / qpstep=4 / cplxblur=20.0 / qblur=0.5 / vbv_maxrate=40000 / vbv_bufsize=30000 / nal_hrd=vbr / filler=0 / ip_ratio=1.40 / aq=1:1.00\r\nLanguage                    : English\r\nDefault                     : Yes\r\nForced                      : No\r\n===================================================================================\r\nAudio\r\nID                          : 2\r\nFormat                      : AAC\r\nFormat/Info                 : Advanced Audio Codec\r\nFormat profile              : LC\r\nCodec ID                    : A_AAC\r\nDuration                    : 3mn 31s\r\nBit rate                    : 96.0 Kbps\r\nChannel(s)                  : 2 channels\r\nChannel positions           : Front: L R\r\nSampling rate               : 44.1 KHz\r\nFrame rate                  : 43.066 fps (1024 spf)\r\nCompression mode            : Lossy\r\nDelay relative to video     : 10ms\r\nStream size                 : 2.39 MiB (4%)\r\nTitle                       : = __ TaRa ~ DDR __ =\r\nLanguage                    : English\r\nDefault                     : Yes\r\nForced                      : No\r\n==================================================================== \nhttps://picoolio.net/image/I8DJ","torrent":{"xt":"urn:btih:1a863e40e3c7b1c1db99dc1d37dee79b304d5416","amp;dn":"David+Guetta+Feat.+Akon+-+Sexy+Chick+%28Official+Video%29+-+Full+HD+","amp;tr":["udp%3A%2F%2Ftracker.leechers-paradise.org%3A6969","udp%3A%2F%2Fzer0day.ch%3A1337","udp%3A%2F%2Fopen.demonii.com%3A1337","udp%3A%2F%2Ftracker.coppersurfer.tk%3A6969","udp%3A%2F%2Fexodus.desync.com%3A6969"],"infoHash":"1a863e40e3c7b1c1db99dc1d37dee79b304d5416","infoHashBuffer":{"type":"Buffer","data":[26,134,62,64,227,199,177,193,219,153,220,29,55,222,231,155,48,77,84,22]},"announce":[],"urlList":[]}}